<svg width="105" height="411" viewBox="0 0 105 411" fill="none" xmlns="http://www.w3.org/2000/svg">
<rect width="6" height="75.4898" fill="#10CA00"/>
<rect x="11" width="6" height="75.4898" fill="#10CA00"/>
<rect x="22" width="6" height="75.4898" fill="#10CA00"/>
<rect x="33" width="6" height="75.4898" fill="#10CA00"/>
<rect x="44" width="6" height="75.4898" fill="#10CA00"/>
<rect x="55" width="6" height="75.4898" fill="#10CA00"/>
<rect x="66" width="6" height="75.4898" fill="#10CA00"/>
<rect x="77" width="6" height="75.4898" fill="#10CA00"/>
<rect x="88" width="6" height="75.4898" fill="#10CA00"/>
<rect x="99" width="6" height="75.4898" fill="#10CA00"/>
<rect y="83.8775" width="6" height="75.4898" fill="#10CA00"/>
<rect x="11" y="83.8775" width="6" height="75.4898" fill="#10CA00"/>
<rect x="22" y="83.8775" width="6" height="75.4898" fill="#10CA00"/>
<rect x="33" y="83.8775" width="6" height="75.4898" fill="#10CA00"/>
<rect x="44" y="83.8775" width="6" height="75.4898" fill="#10CA00"/>
<rect x="55" y="83.8775" width="6" height="75.4898" fill="#10CA00"/>
<rect x="66" y="83.8775" width="6" height="75.4898" fill="#10CA00"/>
<rect x="77" y="83.8775" width="6" height="75.4898" fill="#10CA00"/>
<rect x="88" y="83.8775" width="6" height="75.4898" fill="#10CA00"/>
<rect x="99" y="83.8775" width="6" height="75.4898" fill="#10CA00"/>
<rect y="167.755" width="6" height="75.4898" fill="#10CA00"/>
<rect x="11" y="167.755" width="6" height="75.4898" fill="#10CA00"/>
<rect x="22" y="167.755" width="6" height="75.4898" fill="#10CA00"/>
<rect x="33" y="167.755" width="6" height="75.4898" fill="#10CA00"/>
<rect x="44" y="167.755" width="6" height="75.4898" fill="#10CA00"/>
<rect x="55" y="167.755" width="6" height="75.4898" fill="#10CA00"/>
<rect x="66" y="167.755" width="6" height="75.4898" fill="#10CA00"/>
<rect x="77" y="167.755" width="6" height="75.4898" fill="#10CA00"/>
<rect x="88" y="167.755" width="6" height="75.4898" fill="#10CA00"/>
<rect x="99" y="167.755" width="6" height="75.4898" fill="#10CA00"/>
<rect y="251.633" width="6" height="75.4898" fill="#10CA00"/>
<rect x="11" y="251.633" width="6" height="75.4898" fill="#10CA00"/>
<rect x="22" y="251.633" width="6" height="75.4898" fill="#10CA00"/>
<rect x="33" y="251.633" width="6" height="75.4898" fill="#10CA00"/>
<rect x="44" y="251.633" width="6" height="75.4898" fill="#10CA00"/>
<rect x="55" y="251.633" width="6" height="75.4898" fill="#10CA00"/>
<rect x="66" y="251.633" width="6" height="75.4898" fill="#10CA00"/>
<rect x="77" y="251.633" width="6" height="75.4898" fill="#10CA00"/>
<rect x="88" y="251.633" width="6" height="75.4898" fill="#10CA00"/>
<rect x="99" y="251.633" width="6" height="75.4898" fill="#10CA00"/>
<rect y="335.51" width="6" height="75.4898" fill="#10CA00"/>
<rect x="11" y="335.51" width="6" height="75.4898" fill="#10CA00"/>
<rect x="22" y="335.51" width="6" height="75.4898" fill="#10CA00"/>
<rect x="33" y="335.51" width="6" height="75.4898" fill="#10CA00"/>
<rect x="44" y="335.51" width="6" height="75.4898" fill="#10CA00"/>
<rect x="55" y="335.51" width="6" height="75.4898" fill="#10CA00"/>
<rect x="66" y="335.51" width="6" height="75.4898" fill="#10CA00"/>
<rect x="77" y="335.51" width="6" height="75.4898" fill="#10CA00"/>
<rect x="88" y="335.51" width="6" height="75.4898" fill="#10CA00"/>
<rect x="99" y="335.51" width="6" height="75.4898" fill="#10CA00"/>
</svg>
