<svg width="105" height="489" viewBox="0 0 105 489" fill="none" xmlns="http://www.w3.org/2000/svg">
<rect width="6" height="107.265" fill="#10CA00"/>
<rect x="11" width="6" height="107.265" fill="#10CA00"/>
<rect x="22" width="6" height="107.265" fill="#10CA00"/>
<rect x="33" width="6" height="107.265" fill="#10CA00"/>
<rect x="44" width="6" height="107.265" fill="#10CA00"/>
<rect x="55" width="6" height="107.265" fill="#10CA00"/>
<rect x="66" width="6" height="107.265" fill="#10CA00"/>
<rect x="77" width="6" height="107.265" fill="#10CA00"/>
<rect x="88" width="6" height="107.265" fill="#10CA00"/>
<rect x="99" width="6" height="107.265" fill="#10CA00"/>
<rect y="119.184" width="6" height="107.265" fill="#10CA00"/>
<rect x="11" y="119.184" width="6" height="107.265" fill="#10CA00"/>
<rect x="22" y="119.184" width="6" height="107.265" fill="#10CA00"/>
<rect x="33" y="119.184" width="6" height="107.265" fill="#10CA00"/>
<rect x="44" y="119.184" width="6" height="107.265" fill="#10CA00"/>
<rect x="55" y="119.184" width="6" height="107.265" fill="#10CA00"/>
<rect x="66" y="119.184" width="6" height="107.265" fill="#10CA00"/>
<rect x="77" y="119.184" width="6" height="107.265" fill="#10CA00"/>
<rect x="88" y="119.184" width="6" height="107.265" fill="#10CA00"/>
<rect x="99" y="119.184" width="6" height="107.265" fill="#10CA00"/>
<rect y="238.367" width="6" height="107.265" fill="#10CA00"/>
<rect x="11" y="238.367" width="6" height="107.265" fill="#10CA00"/>
<rect x="22" y="238.367" width="6" height="107.265" fill="#10CA00"/>
<rect x="33" y="238.367" width="6" height="107.265" fill="#10CA00"/>
<rect x="44" y="238.367" width="6" height="107.265" fill="#10CA00"/>
<rect x="55" y="238.367" width="6" height="107.265" fill="#10CA00"/>
<rect x="66" y="238.367" width="6" height="107.265" fill="#10CA00"/>
<rect x="77" y="238.367" width="6" height="107.265" fill="#10CA00"/>
<rect x="88" y="238.367" width="6" height="107.265" fill="#10CA00"/>
<rect x="99" y="238.367" width="6" height="107.265" fill="#10CA00"/>
<rect y="357.551" width="6" height="107.265" fill="#10CA00"/>
<rect x="11" y="357.551" width="6" height="107.265" fill="#10CA00"/>
<rect x="22" y="357.551" width="6" height="107.265" fill="#10CA00"/>
<rect x="33" y="357.551" width="6" height="107.265" fill="#10CA00"/>
<rect x="44" y="357.551" width="6" height="107.265" fill="#10CA00"/>
<rect x="55" y="357.551" width="6" height="107.265" fill="#10CA00"/>
<rect x="66" y="357.551" width="6" height="107.265" fill="#10CA00"/>
<rect x="77" y="357.551" width="6" height="107.265" fill="#10CA00"/>
<rect x="88" y="357.551" width="6" height="107.265" fill="#10CA00"/>
<rect x="99" y="357.551" width="6" height="107.265" fill="#10CA00"/>
<rect y="476.735" width="6" height="107.265" fill="#10CA00"/>
<rect x="11" y="476.735" width="6" height="107.265" fill="#10CA00"/>
<rect x="22" y="476.735" width="6" height="107.265" fill="#10CA00"/>
<rect x="33" y="476.735" width="6" height="107.265" fill="#10CA00"/>
<rect x="44" y="476.735" width="6" height="107.265" fill="#10CA00"/>
<rect x="55" y="476.735" width="6" height="107.265" fill="#10CA00"/>
<rect x="66" y="476.735" width="6" height="107.265" fill="#10CA00"/>
<rect x="77" y="476.735" width="6" height="107.265" fill="#10CA00"/>
<rect x="88" y="476.735" width="6" height="107.265" fill="#10CA00"/>
<rect x="99" y="476.735" width="6" height="107.265" fill="#10CA00"/>
</svg>
